Coordinates
version=1
nRows=19
nColumns=36
inDegrees=yes

Units are S.I. units (second, meters, Newtons, ...)
If the header above contains a line with 'inDegrees', this indicates whether rotational values are in degrees (yes) or radians (no).

endheader
time	pelvis_tilt	pelvis_list	pelvis_rotation	pelvis_tx	pelvis_ty	pelvis_tz	hip_flexion_r	hip_adduction_r	hip_rotation_r	knee_angle_r	knee_angle_r_beta	ankle_angle_r	subtalar_angle_r	mtp_angle_r	hip_flexion_l	hip_adduction_l	hip_rotation_l	knee_angle_l	knee_angle_l_beta	ankle_angle_l	subtalar_angle_l	mtp_angle_l	lumbar_extension	lumbar_bending	lumbar_rotation	arm_flex_r	arm_add_r	arm_rot_r	elbow_flex_r	pro_sup_r	arm_flex_l	arm_add_l	arm_rot_l	elbow_flex_l	pro_sup_l
      4.50000000	    -52.79306969	     -2.72859699	     -6.17884351	     -0.45007324	      0.89225900	     -0.50973283	    101.64369198	     -0.27523271	     -3.76299745	     60.08919727	      1.04875434	     12.94311578	     -7.29870919	     -7.49999987	    102.51112256	    -29.31231729	      2.84208225	     59.23990635	      1.03393141	     14.27713280	     16.22521756	     -7.49999987	    -34.09879855	     -0.12233934	     15.90709330	    117.87818685	    -13.42217229	     21.06711116	     93.86151090	    102.44892745	    110.07779488	     -1.46671763	     17.27625853	     91.84275033	    108.56393943
      4.51000000	    -52.62747038	     -2.85301595	     -6.17535051	     -0.44891254	      0.89632651	     -0.51025048	    100.93149743	     -0.20813868	     -3.78766895	     59.33502443	      1.03559154	     12.80775625	     -7.29687738	     -7.49999987	    101.84315679	    -29.27417507	      2.63915750	     58.58175849	      1.02244457	     14.18597000	     16.22014126	     -7.49999987	    -33.85968567	      0.06655757	     15.86997853	    117.03823907	    -13.59596032	     21.23754653	     93.94616161	    102.47553848	    109.31361042	     -1.60838682	     17.41365352	     91.89207225	    108.57745141
      4.52000000	    -52.68344731	     -2.79413291	     -6.13283515	     -0.44784861	      0.90047546	     -0.51070993	    100.46642057	     -0.10931644	     -3.55835511	     58.53475127	      1.02162414	     12.16238702	     -7.71134074	     -7.49999987	    101.17983435	    -29.16872788	      2.21450607	     57.68254051	      1.00675025	     13.72505323	     16.07339017	     -7.49999987	    -33.35565382	      0.11401134	     15.57986976	    115.94326476	    -13.55418602	     21.05328652	     94.51734668	    102.57106836	    108.38881305	     -1.87050385	     17.50861544	     92.43559482	    108.62464979
      4.53000000	    -52.58084880	     -2.79336177	     -6.08132852	     -0.44670968	      0.90484386	     -0.51121898	     99.80436285	      0.01179238	     -3.32081695	     57.69693913	      1.00700156	     11.67169031	     -8.09370565	     -7.49999987	    100.41239943	    -29.07854924	      1.82341255	     56.85047446	      0.99222796	     13.38491758	     15.96407612	     -7.49999987	    -32.96145500	      0.22173282	     15.31434035	    114.85457298	    -13.60474302	     20.99729150	     94.86116862	    102.64784371	    107.45883698	     -2.15040651	     17.61020886	     92.78383318	    108.66477585
      4.54000000	    -52.43810164	     -2.76750501	     -6.01244740	     -0.44548733	      0.90944223	     -0.51190312	     99.05708009	      0.10078702	     -3.06628566	     56.77979218	      0.99099432	     11.31909153	     -8.31868025	     -7.49999987	     99.57517734	    -28.94314930	      1.45114292	     56.02677045	      0.97785161	     13.05885461	     15.97287835	     -7.49999987	    -32.59572695	      0.33368913	     15.13269310	    113.77210071	    -13.70064867	     21.08015459	     95.29470633	    102.71228576	    106.53068238	     -2.34656907	     17.66959345	     93.15838668	    108.71628029
      4.55000000	    -52.15948971	     -2.91789278	     -5.95111752	     -0.44415375	      0.91407208	     -0.51271185	     98.17525343	      0.19160545	     -2.94575022	     55.96197312	      0.97672069	     11.17170299	     -8.31798805	     -7.49999987	     98.75805321	    -28.87008422	      1.16790376	     55.31331989	      0.96539955	     12.92589727	     15.98935279	     -7.49999987	    -32.27998547	      0.62273445	     15.02404843	    112.68139852	    -13.93749371	     21.29416819	     95.47434648	    102.74281189	    105.51033405	     -2.56768087	     17.82949983	     93.20511549	    108.73711820
      4.56000000	    -52.18391698	     -2.68112524	     -5.86435838	     -0.44295558	      0.91870768	     -0.51340384	     97.65714775	      0.27980363	     -2.45444962	     55.05944363	      0.96096858	     10.26198187	     -9.01088633	     -7.49999987	     97.88001633	    -28.73138855	      0.43759088	     54.29009553	      0.94754092	     12.33443716	     15.93006739	     -7.49999987	    -31.59336124	      0.51240545	     14.49749144	    111.12054178	    -13.80595479	     20.88287647	     96.26149281	    102.84607566	    104.42138519	     -2.88757725	     18.04535648	     93.74788629	    108.83113344
      4.57000000	    -51.97681192	     -2.67418115	     -5.87513560	     -0.44150836	      0.92345840	     -0.51399126	     96.84338064	      0.44699874	     -2.19988412	     54.15689243	      0.94521609	      9.85982157	     -9.21125735	     -7.49999987	     96.95870128	    -28.72323687	     -0.00970018	     53.42499010	      0.93244198	     11.99245067	     16.02559366	     -7.49999987	    -31.10827260	      0.60838757	     14.30269322	    109.70082401	    -13.88533576	     20.84300132	     96.79943881	    102.92138163	    103.22418007	     -3.15673597	     18.18063587	     94.14086291	    108.89770985
      4.58000000	    -51.80956221	     -2.64994013	     -5.82365186	     -0.44011586	      0.92819225	     -0.51483751	     96.05405209	      0.53357543	     -1.92437473	     53.21759427	      0.92882224	      9.41646954	     -9.40135792	     -7.49999987	     96.04673205	    -28.60826493	     -0.47155186	     52.51773199	      0.91660734	     11.66467243	     16.06906857	     -7.49999987	    -30.52923702	      0.72713265	     14.03891524	    108.20488958	    -13.98766130	     20.78028668	     97.36232847	    102.99246153	    101.97910813	     -3.45926236	     18.36362715	     94.53299437	    108.95625102
      4.59000000	    -51.60917366	     -2.55343197	     -5.66953419	     -0.43871158	      0.93299560	     -0.51619900	     95.27121654	      0.44704778	     -1.63793193	     52.32831582	      0.91330140	      8.93472083	     -9.53549503	     -7.49999987	     95.03350697	    -28.33323617	     -1.00896257	     51.58278141	      0.90028937	     11.32400058	     16.06091118	     -7.49999987	    -29.94565837	      0.87758266	     13.73504194	    106.67947681	    -14.16867758	     20.72469130	     97.94244211	    103.06644254	    100.68771375	     -3.78840703	     18.56096953	     94.89470820	    108.99711401
      4.60000000	    -51.26859475	     -2.31615165	     -5.52564553	     -0.43694501	      0.93807006	     -0.51758021	     94.36366430	      0.34993729	     -1.22787418	     51.46194897	      0.89818045	      8.40948870	     -9.64626973	     -7.49999987	     93.75991265	    -28.08970176	     -1.78393642	     50.62179246	      0.88351695	     10.97943388	     16.03098012	     -7.49999987	    -29.47359400	      0.84946116	     13.36723248	    105.07205939	    -14.32184324	     20.56808346	     98.58306255	    103.15837656	     99.34349468	     -4.07157292	     18.76664888	     95.25433513	    109.03175341
      4.61000000	    -50.73405588	     -2.02391421	     -5.48390059	     -0.43465673	      0.94352109	     -0.51870791	     93.23336985	      0.34618020	     -0.77254580	     50.57517233	      0.88270328	      7.98659431	     -9.68020795	     -7.49999987	     92.23070812	    -27.99993332	     -2.71209033	     49.68351300	      0.86714089	     10.70859994	     16.13027834	     -7.49999987	    -29.19370830	      0.69018351	     13.06421726	    103.40748648	    -14.46542571	     20.36805428	     99.26569894	    103.26008282	     97.92123928	     -4.26958024	     18.89234192	     95.65493766	    109.06833770
      4.62000000	    -50.13713779	     -1.62099476	     -5.44861391	     -0.43211460	      0.94905964	     -0.51988399	     92.06321553	      0.28115120	     -0.29560708	     49.71834378	      0.86774880	      7.59791382	     -9.68119519	     -7.49999987	     90.55635309	    -27.89462858	     -3.79249675	     48.74236838	      0.85071481	     10.47134060	     16.33004033	     -7.49999987	    -28.92938105	      0.39985993	     12.70620298	    101.62835427	    -14.57538229	     20.06526429	     99.98698781	    103.37957193	     96.39817733	     -4.39932240	     18.97341615	     96.07241678	    109.08988874
      4.63000000	    -49.50941572	     -1.40236474	     -5.42857941	     -0.42951633	      0.95477280	     -0.52125462	     90.77495738	      0.20898969	     -0.00953799	     48.76979089	      0.85119343	      7.33176279	     -9.54416744	     -7.49999987	     88.93881965	    -27.76196868	     -4.61807053	     47.77193539	      0.83377756	     10.24743836	     16.47980176	     -7.49999987	    -28.70400090	      0.31190391	     12.47764727	     99.90237446	    -14.75577390	     19.96282892	    100.64928127	    103.46891255	     94.80449461	     -4.43788856	     18.97285295	     96.52825430	    109.11577382
      4.64000000	    -48.69932842	     -0.98288582	     -5.48110248	     -0.42669327	      0.96077301	     -0.52256300	     89.36959112	      0.16335669	      0.46182512	     47.88250494	      0.83570737	      6.97527644	     -9.40240520	     -7.49999987	     87.00422050	    -27.69987194	     -5.80016406	     46.81596350	      0.81709271	     10.02905867	     16.67130711	     -7.49999987	    -28.63408765	     -0.07191959	     12.20775817	     98.05476788	    -14.93277472	     19.65325619	    101.36955221	    103.60131100	     93.23138920	     -4.45488472	     19.01334041	     96.92033394	    109.12533798
      4.65000000	    -47.98070564	     -0.88168575	     -5.58187979	     -0.42386561	      0.96674180	     -0.52376097	     87.91494210	      0.19252134	      0.60059363	     46.83263599	      0.81738370	      6.76316225	     -9.22589821	     -7.49999987	     85.32042643	    -27.67244332	     -6.51151043	     45.80545125	      0.79945594	      9.86995729	     16.76400399	     -7.49999987	    -28.45218786	     -0.06832493	     12.19704708	     96.27051617	    -15.12371082	     19.66280656	    101.96013224	    103.68251288	     91.53070353	     -4.56774078	     19.07353563	     97.31972246	    109.16049704
      4.66000000	    -47.15045743	     -0.30007072	     -5.57813554	     -0.42079966	      0.97243891	     -0.52507329	     86.56577285	      0.00422530	      1.21067616	     46.05829319	      0.80386886	      6.42228680	     -9.00070376	     -7.49999987	     83.28469252	    -27.47089251	     -7.90193109	     44.87277014	      0.78317758	      9.64911487	     17.05398040	     -7.49999987	    -28.28848313	     -0.58557432	     11.84815378	     94.18740164	    -15.26895826	     19.23132849	    102.78078235	    103.81433887	     89.81873626	     -4.62277628	     19.12396977	     97.82578932	    109.18063534
      4.67000000	    -46.37948359	      0.07576355	     -5.56560346	     -0.41772413	      0.97809426	     -0.52655408	     85.20385234	     -0.21127475	      1.55787065	     45.21155771	      0.78909054	      6.22053985	     -8.72157110	     -7.49999987	     81.41116265	    -27.22266796	     -8.97862629	     43.89265168	      0.76607129	      9.51273752	     17.24090808	     -7.49999987	    -28.02990464	     -0.83694736	     11.59432596	     92.13227948	    -15.41962818	     19.00739260	    103.41368014	    103.93396414	     88.05873912	     -4.78635669	     19.29141715	     98.26060649	    109.18847912
      4.68000000	    -45.60479996	      0.08120909	     -5.61407633	     -0.41456203	      0.98397866	     -0.52807789	     83.68084019	     -0.31622393	      1.52581464	     44.19325304	      0.77131777	      6.04119232	     -8.48879250	     -7.49999987	     79.72615634	    -27.08752836	     -9.60826569	     42.91179523	      0.74895211	      9.39353252	     17.29883710	     -7.49999987	    -27.79341439	     -0.67405288	     11.58747860	     90.18932701	    -15.61363598	     19.06574430	    103.88733081	    103.98779466	     86.21613401	     -4.94768012	     19.38457230	     98.66698246	    109.22284458
